<svg width="17" height="20" viewBox="0 0 17 20" fill="none" xmlns="http://www.w3.org/2000/svg">
<path fill-rule="evenodd" clip-rule="evenodd" d="M4.25 3.21389C4.25 3.49803 4.13806 3.77054 3.9388 3.97146C3.73955 4.17239 3.4693 4.28526 3.1875 4.28526C2.90571 4.28526 2.63546 4.17239 2.4362 3.97146C2.23695 3.77054 2.12501 3.49803 2.12501 3.21389C2.12501 2.92974 2.23695 2.65723 2.4362 2.45631C2.63546 2.25539 2.90571 2.14251 3.1875 2.14251C3.4693 2.14251 3.73955 2.25539 3.9388 2.45631C4.13806 2.65723 4.25 2.92974 4.25 3.21389ZM4.25 6.24516C4.95892 5.99243 5.5564 5.49513 5.93686 4.84115C6.31732 4.18717 6.45625 3.41862 6.3291 2.67134C6.20195 1.92406 5.8169 1.24617 5.24202 0.757468C4.66713 0.268769 3.93942 0.000732422 3.1875 0.000732422C2.43559 0.000732422 1.70788 0.268769 1.13299 0.757468C0.558107 1.24617 0.173062 1.92406 0.0459112 2.67134C-0.0812395 3.41862 0.057691 4.18717 0.438148 4.84115C0.818605 5.49513 1.41609 5.99243 2.12501 6.24516V7.49939C2.12501 8.35183 2.46083 9.16935 3.0586 9.77212C3.65637 10.3749 4.46713 10.7135 5.3125 10.7135H7.4375V13.7534C6.72819 14.0061 6.13034 14.5036 5.74961 15.1578C5.36889 15.8121 5.22981 16.581 5.35697 17.3287C5.48412 18.0764 5.86932 18.7546 6.44448 19.2436C7.01963 19.7325 7.74771 20.0007 8.5 20.0007C9.25229 20.0007 9.98037 19.7325 10.5555 19.2436C11.1307 18.7546 11.5159 18.0764 11.643 17.3287C11.7702 16.581 11.6311 15.8121 11.2504 15.1578C10.8697 14.5036 10.2718 14.0061 9.5625 13.7534V10.7135H11.6875C12.5329 10.7135 13.3436 10.3749 13.9414 9.77212C14.5392 9.16935 14.875 8.35183 14.875 7.49939V6.24516C15.5839 5.99243 16.1814 5.49513 16.5619 4.84115C16.9423 4.18717 17.0812 3.41862 16.9541 2.67134C16.8269 1.92406 16.4419 1.24617 15.867 0.757468C15.2921 0.268769 14.5644 0.000732422 13.8125 0.000732422C13.0606 0.000732422 12.3329 0.268769 11.758 0.757468C11.1831 1.24617 10.7981 1.92406 10.6709 2.67134C10.5438 3.41862 10.6827 4.18717 11.0631 4.84115C11.4436 5.49513 12.0411 5.99243 12.75 6.24516V7.49939C12.75 7.78353 12.6381 8.05604 12.4388 8.25696C12.2395 8.45788 11.9693 8.57076 11.6875 8.57076H5.3125C5.03071 8.57076 4.76046 8.45788 4.5612 8.25696C4.36194 8.05604 4.25 7.78353 4.25 7.49939V6.24516ZM9.5625 16.7846C9.5625 17.0688 9.45056 17.3413 9.2513 17.5422C9.05204 17.7431 8.78179 17.856 8.5 17.856C8.21821 17.856 7.94796 17.7431 7.7487 17.5422C7.54944 17.3413 7.4375 17.0688 7.4375 16.7846C7.4375 16.5005 7.54944 16.228 7.7487 16.0271C7.94796 15.8261 8.21821 15.7133 8.5 15.7133C8.78179 15.7133 9.05204 15.8261 9.2513 16.0271C9.45056 16.228 9.5625 16.5005 9.5625 16.7846ZM13.8125 4.28526C14.0943 4.28526 14.3645 4.17239 14.5638 3.97146C14.7631 3.77054 14.875 3.49803 14.875 3.21389C14.875 2.92974 14.7631 2.65723 14.5638 2.45631C14.3645 2.25539 14.0943 2.14251 13.8125 2.14251C13.5307 2.14251 13.2605 2.25539 13.0612 2.45631C12.8619 2.65723 12.75 2.92974 12.75 3.21389C12.75 3.49803 12.8619 3.77054 13.0612 3.97146C13.2605 4.17239 13.5307 4.28526 13.8125 4.28526Z" fill="black"/>
</svg>
